<?xml version="1.0" encoding="utf-8"?>
<!-- Generator: Adobe Illustrator 24.3.0, SVG Export Plug-In . SVG Version: 6.00 Build 0)  -->
<svg version="1.1" id="Layer_1" xmlns="http://www.w3.org/2000/svg" xmlns:xlink="http://www.w3.org/1999/xlink" x="0px" y="0px"
	 viewBox="0 0 56 56" style="enable-background:new 0 0 56 56;" xml:space="preserve">
<style type="text/css">
	.st0{fill:none;stroke:#231F20;stroke-width:0.5;stroke-linecap:round;stroke-miterlimit:10;}
	.st1{fill:#231F20;stroke:#231F20;stroke-width:0.5;stroke-miterlimit:10;}
	.st2{fill:none;stroke:#231F20;stroke-width:0.25;stroke-linecap:round;stroke-miterlimit:10;}
	.st3{fill:#F1F2F2;}
	.st4{fill:none;stroke:#231F20;stroke-miterlimit:10;}
	.st5{fill:#231F20;stroke:#231F20;stroke-width:0.25;stroke-miterlimit:10;}
	.st6{fill:#231F20;stroke:#231F20;stroke-width:0.5;stroke-linecap:round;stroke-miterlimit:10;}
	.st7{fill:none;stroke:#FFFFFF;stroke-width:0.5;stroke-linecap:round;stroke-miterlimit:10;}
	.st8{fill:#231F20;}
</style>
<line class="st0" x1="27.51" y1="9.06" x2="27.57" y2="11.3"/>
<line class="st0" x1="27.54" y1="4.72" x2="27.54" y2="6.57"/>
<line class="st0" x1="31.09" y1="8.17" x2="30.13" y2="13.4"/>
<line class="st0" x1="35.06" y1="7.74" x2="33.13" y2="13.13"/>
<line class="st0" x1="40.38" y1="6.32" x2="36.4" y2="13.3"/>
<line class="st0" x1="40.81" y1="12.91" x2="38.09" y2="16.26"/>
<line class="st0" x1="39.28" y1="19.21" x2="42.15" y2="16.66"/>
<line class="st0" x1="44.17" y1="14.98" x2="45.45" y2="13.7"/>
<line class="st0" x1="45.11" y1="19" x2="48.81" y2="16.72"/>
<line class="st0" x1="38.57" y1="22.91" x2="42.87" y2="20.28"/>
<line class="st0" x1="37.13" y1="26.02" x2="40.17" y2="24.83"/>
<line class="st0" x1="42.47" y1="23.91" x2="49.66" y2="21.23"/>
<line class="st0" x1="36.81" y1="28" x2="42.19" y2="26.98"/>
<line class="st0" x1="46.06" y1="26.36" x2="50.68" y2="25.43"/>
<line class="st0" x1="36.38" y1="29.66" x2="45.34" y2="29.72"/>
<line class="st0" x1="47.79" y1="29.69" x2="49.7" y2="29.69"/>
<line class="st0" x1="36.09" y1="31.38" x2="40.72" y2="32.21"/>
<line class="st0" x1="43.23" y1="32.68" x2="47.79" y2="33.49"/>
<line class="st0" x1="35.87" y1="32.87" x2="41.55" y2="35.15"/>
<line class="st0" x1="43.85" y1="35.98" x2="45.64" y2="36.72"/>
<line class="st0" x1="37.57" y1="35.89" x2="39.21" y2="36.91"/>
<line class="st0" x1="41.32" y1="38.13" x2="47.91" y2="42.19"/>
<line class="st0" x1="35.3" y1="36.62" x2="36.77" y2="37.94"/>
<line class="st0" x1="38.62" y1="39.53" x2="45.51" y2="45.7"/>
<line class="st0" x1="34.77" y1="38.87" x2="36.15" y2="40.68"/>
<line class="st0" x1="37.77" y1="42.62" x2="42.66" y2="48.85"/>
<line class="st0" x1="34.15" y1="42.04" x2="38.6" y2="49.96"/>
<line class="st0" x1="32.7" y1="44.96" x2="33.11" y2="46.15"/>
<line class="st0" x1="33.81" y1="48.43" x2="35.46" y2="53.09"/>
<line class="st0" x1="30.17" y1="46" x2="30.6" y2="48.34"/>
<line class="st0" x1="30.96" y1="50.76" x2="31.36" y2="52.81"/>
<line class="st0" x1="27.47" y1="46.28" x2="27.57" y2="54.57"/>
<line class="st0" x1="24.74" y1="46.36" x2="23.45" y2="54.32"/>
<line class="st0" x1="22.26" y1="45" x2="19.98" y2="51.64"/>
<line class="st0" x1="20.68" y1="42.11" x2="15.68" y2="51.3"/>
<line class="st0" x1="12.28" y1="48.77" x2="14.38" y2="46.21"/>
<line class="st0" x1="16" y1="44.15" x2="20.13" y2="38.94"/>
<line class="st0" x1="9.4" y1="45.74" x2="12.98" y2="42.49"/>
<line class="st0" x1="14.89" y1="40.91" x2="19.64" y2="36.72"/>
<line class="st0" x1="9.47" y1="40.66" x2="19.47" y2="34.62"/>
<line class="st0" x1="5.36" y1="38.21" x2="8.4" y2="37"/>
<line class="st0" x1="10.83" y1="36.19" x2="15.06" y2="34.47"/>
<line class="st0" x1="17.49" y1="33.6" x2="18.96" y2="32.98"/>
<line class="st0" x1="4.28" y1="34.01" x2="11.89" y2="32.64"/>
<line class="st0" x1="14.11" y1="32.15" x2="18.87" y2="31.4"/>
<line class="st0" x1="3.89" y1="29.74" x2="14.34" y2="29.83"/>
<line class="st0" x1="16.81" y1="29.77" x2="18.55" y2="29.72"/>
<line class="st0" x1="7.11" y1="25.94" x2="14.55" y2="27.3"/>
<line class="st0" x1="16.89" y1="27.77" x2="18.06" y2="28"/>
<line class="st0" x1="5.32" y1="21.13" x2="7.11" y2="21.91"/>
<line class="st0" x1="9.36" y1="22.74" x2="12.45" y2="23.94"/>
<line class="st0" x1="14.74" y1="24.81" x2="17.81" y2="25.98"/>
<line class="st0" x1="7.09" y1="17.21" x2="12.47" y2="20.62"/>
<line class="st0" x1="14.45" y1="21.77" x2="16.02" y2="22.81"/>
<line class="st0" x1="9.38" y1="13.7" x2="15.34" y2="18.91"/>
<line class="st0" x1="12.23" y1="10.55" x2="14.57" y2="13.36"/>
<line class="st0" x1="15.94" y1="15.26" x2="16.83" y2="16.09"/>
<line class="st0" x1="18.68" y1="13.4" x2="17.85" y2="12.15"/>
<polygon class="st0" points="33.4,21.42 33.4,21.46 33.37,21.42 "/>
<path class="st1" d="M37.54,20.6l-4.23,0.73l0.06,0.09h0.03v0.04l-0.03-0.04h-12l-4.31-0.96l0.26,1.44l-0.06,0.01l4.12,22.42
	l-0.01-0.52c0.05,1.14,2.72,2.05,6.01,2.05c3.03,0,5.53-0.77,5.95-1.78l4.03-22.13l-0.06-0.01L37.54,20.6z M33.4,43.48
	c0,0.1-0.02,0.19-0.07,0.28l0.07-5.75V43.48z"/>
<polygon class="st2" points="33.4,21.42 33.4,21.46 33.37,21.42 "/>
<ellipse transform="matrix(0.5 -0.866 0.866 0.5 -13.7846 39.75)" class="st3" cx="27.53" cy="31.81" rx="6.2" ry="4.24"/>
<path class="st4" d="M30.61,25.89c0,3.25-1.17,5.88-2.61,5.88"/>
<path class="st4" d="M25.85,37.64c0-3.24,0.96-5.86,2.15-5.86"/>
<path class="st5" d="M35.99,20.36H18.72c-0.42,0-2.03-0.85-2.03-1.14l0,0c0-0.29,0.34-0.52,0.77-0.52h19.49
	c0.42,0,0.77,0.23,0.77,0.52l0,0C37.71,19.52,36.41,20.36,35.99,20.36z"/>
<path class="st5" d="M36.03,18.14H18.38c-0.66,0-1.2-0.44-1.2-0.97v-0.16c0-0.54,0.83-1.55,1.49-1.55h17.11
	c0.66,0,1.45,1.01,1.45,1.55v0.16C37.22,17.7,36.69,18.14,36.03,18.14z"/>
<path class="st6" d="M24.72,16.4L24.72,16.4c-0.4,0.14-0.84-0.07-0.98-0.47L19.23,3.08c-0.14-0.4,0.07-0.84,0.47-0.98l0,0
	c0.4-0.14,0.84,0.07,0.98,0.47l4.51,12.85C25.33,15.82,25.12,16.26,24.72,16.4z"/>
<line class="st7" x1="19.79" y1="1.99" x2="24.62" y2="15.55"/>
<rect x="22.74" y="15.46" class="st8" width="3.62" height="0.65"/>
<rect x="25.51" y="15.78" class="st6" width="0.04" height="0.32"/>
</svg>
